<svg height="384pt" viewBox="-16 0 384 384" width="384pt" xmlns="http://www.w3.org/2000/svg"><path d="m288 176.03125c0 61.855469-50.144531 112-112 112s-112-50.144531-112-112 50.144531-112 112-112 112 50.144531 112 112zm0 0" fill="#cce4ff"/><g fill="#007aff"><path d="m176 352h16v-32h-16c-79.398438 0-144-64.601562-144-144s64.601562-144 144-144 144 64.601562 144 144c0 25.574219-6.785156 50.6875-19.625 72.617188l-8.078125 13.816406 27.613281 16.167968 8.089844-13.808593c15.695312-26.832031 24-57.535157 24-88.792969 0-97.046875-78.953125-176-176-176s-176 78.953125-176 176 78.953125 176 176 176zm0 0"/><path d="m272 384v-185.886719l-64 32v-86.113281h-32v137.886719l64-32v134.113281zm0 0"/></g></svg>